<svg xmlns="http://www.w3.org/2000/svg" width="400" height="130" viewBox="0 0 400 130"><defs><clipPath id="clip-path"><path id="Tracciato_5" data-name="Tracciato 5" d="M11.334 60.211a11.866 11.866 0 000 16.782L32.589 98.2l14.676 14.729a11.867 11.867 0 0016.742.04l.11-.11a11.867 11.867 0 00-.07-16.71L28.114 60.211a11.866 11.866 0 00-16.781 0" transform="translate(-7.858 -56.736)" fill="none"/></clipPath><clipPath id="clip-path-2"><path id="Tracciato_6" data-name="Tracciato 6" d="M55.528 0a11.83 11.83 0 00-8.32 3.475L11.276 39.407A11.628 11.628 0 0010.8 55.7l.183.2.24.238c.017.018.032.038.051.056s.041.035.06.054l21.197 21.164C21.118 66 36.441 47.8 36.441 47.8l27.55-27.55A11.865 11.865 0 0055.67 0z" transform="translate(-7.701)" fill="none"/></clipPath><clipPath id="clip-path-3"><path id="Tracciato_5-2" data-name="Tracciato 5" d="M3.476 3.475a11.866 11.866 0 000 16.782l21.255 21.2 14.676 14.731a11.867 11.867 0 0016.742.04l.11-.11a11.867 11.867 0 00-.07-16.71L20.256 3.475a11.866 11.866 0 00-16.781 0" fill="none"/></clipPath><clipPath id="clip-path-4"><path id="Tracciato_6-2" data-name="Tracciato 6" d="M47.826 0a11.83 11.83 0 00-8.32 3.475L3.575 39.407A11.628 11.628 0 003.1 55.7l.183.2.24.238c.017.018.032.038.051.056s.041.035.06.054L24.83 77.412C13.417 66 28.74 47.8 28.74 47.8l27.55-27.55A11.865 11.865 0 0047.968 0z" fill="none"/></clipPath><clipPath id="clip-logo"><path d="M0 0h400v130H0z"/></clipPath><linearGradient id="linear-gradient" x1="1" y1=".5" x2="0" y2=".5" gradientUnits="objectBoundingBox"><stop offset="0" stop-color="#ff9000"/><stop offset="1" stop-color="#da2e00"/></linearGradient><linearGradient id="linear-gradient-2" y1=".5" x2="1.011" y2=".5" gradientUnits="objectBoundingBox"><stop offset="0" stop-color="#ff9000"/><stop offset="1" stop-color="#ff5800"/></linearGradient></defs><g id="logo" clip-path="url(#clip-logo)"><g id="Raggruppa_29" data-name="Raggruppa 29" transform="translate(-206.701 -94)"><g id="Raggruppa_28" data-name="Raggruppa 28" transform="translate(206.701 97)"><g id="Raggruppa_26" data-name="Raggruppa 26"><g id="Raggruppa_7" data-name="Raggruppa 7" transform="translate(.099 35.953)" clip-path="url(#clip-path)"><path id="Rettangolo_12" data-name="Rettangolo 12" transform="rotate(45 15.07 7.335)" fill="url(#linear-gradient)" d="M0 0h78.577v26.615H0z"/></g><g id="Raggruppa_12" data-name="Raggruppa 12" clip-path="url(#clip-path-2)"><path id="Rettangolo_11" data-name="Rettangolo 11" transform="translate(-2.345 -1.267)" fill="url(#linear-gradient-2)" d="M0 0h62.101v80.478H0z"/></g></g><g id="Raggruppa_27" data-name="Raggruppa 27" transform="rotate(180 60.476 62.494)"><g id="Raggruppa_7-2" data-name="Raggruppa 7" transform="translate(.099 35.953)" clip-path="url(#clip-path-3)"><path id="Rettangolo_12-2" data-name="Rettangolo 12" transform="rotate(45 15.07 7.335)" fill="url(#linear-gradient)" d="M0 0h78.577v26.615H0z"/></g><g id="Raggruppa_12-2" data-name="Raggruppa 12" clip-path="url(#clip-path-4)"><path id="Rettangolo_11-2" data-name="Rettangolo 11" transform="translate(-2.345 -1.267)" fill="url(#linear-gradient-2)" d="M0 0h62.101v80.478H0z"/></g></g></g><g id="Raggruppa_25" data-name="Raggruppa 25" transform="translate(357.663 132.214)" fill="#353434"><path id="Tracciato_9" data-name="Tracciato 9" d="M286.228 63.833a4.331 4.331 0 01.943 2.628 4.448 4.448 0 01-4.582 4.313 4.809 4.809 0 01-3.5-1.55 12.943 12.943 0 00-9.232-4.313c-8.153 0-14.083 6.267-14.083 14.757s5.93 14.757 14.083 14.757a12.5 12.5 0 009.232-4.245 5 5 0 013.639-1.549 4.288 4.288 0 014.379 4.178 3.831 3.831 0 01-.943 2.628 20.179 20.179 0 01-16.308 7.48c-13.477 0-23.922-9.434-23.922-23.249s10.445-23.247 23.922-23.247a20.383 20.383 0 0116.375 7.412" transform="translate(-245.931 -55.882)"/><path id="Tracciato_10" data-name="Tracciato 10" d="M335.952 110.044c-10.714 0-17.183-7.816-17.183-17.116 0-9.232 6.469-17.049 17.183-17.049 10.781 0 17.251 7.816 17.251 17.049 0 9.3-6.469 17.116-17.251 17.116m0-26.549c-5.324 0-8.289 4.38-8.289 9.434 0 5.121 2.965 9.5 8.289 9.5s8.356-4.38 8.356-9.5c0-5.054-3.033-9.434-8.356-9.434" transform="translate(-272.613 -63.01)"/><path id="Tracciato_11" data-name="Tracciato 11" d="M401.139 102.537h-12.331a5.406 5.406 0 01-5.391-5.391V62.982a5.406 5.406 0 015.391-5.391h12.331c14.084 0 23.854 8.962 23.854 22.507s-9.771 22.439-23.854 22.439m0-36.523h-8.154v28.1h8.154c8.9 0 14.084-6.4 14.084-14.016 0-7.951-4.852-14.084-14.084-14.084" transform="translate(-296.294 -56.31)"/><path id="Tracciato_12" data-name="Tracciato 12" d="M468.3 60.624a5.122 5.122 0 11-5.121-5.054 5.062 5.062 0 015.121 5.054m-5.118 41.576a4.228 4.228 0 01-4.245-4.245V73.023a4.246 4.246 0 014.38-4.179 4.2 4.2 0 014.178 4.179v24.932a4.243 4.243 0 01-4.313 4.245" transform="translate(-323.638 -55.57)"/><path id="Tracciato_13" data-name="Tracciato 13" d="M514.213 66.014h-9.366v32.143a4.818 4.818 0 01-9.636 0V66.014h-9.367a4.229 4.229 0 01-4.177-4.313 4.185 4.185 0 014.177-4.11h28.369a4.213 4.213 0 010 8.423" transform="translate(-332.285 -56.31)"/><path id="Tracciato_14" data-name="Tracciato 14" d="M563.554 95.692h-20.08c.539 4.111 3.841 7.548 9.366 7.548a14.462 14.462 0 006.334-1.618 3.872 3.872 0 011.685-.4 3.581 3.581 0 013.639 3.436c0 3.841-8.289 5.391-12.6 5.391-9.906 0-17.386-6.671-17.386-17.116 0-9.434 6.941-17.048 16.846-17.048a15.532 15.532 0 0115.229 10.984 17.193 17.193 0 01.944 4.919 3.969 3.969 0 01-3.976 3.909m-12.2-13.005c-5.323 0-7.614 3.976-8.019 7.21h16.037c-.2-3.1-2.358-7.21-8.019-7.21" transform="translate(-351.643 -63.01)"/><path id="Tracciato_15" data-name="Tracciato 15" d="M620.873 106.81a16.07 16.07 0 01-10.311 3.234c-10.039 0-17.25-7.076-17.25-17.116 0-9.973 7.211-17.049 17.25-17.049 5.054 0 9.771 1.82 11.186 4.448a3.126 3.126 0 01.4 1.549 3.881 3.881 0 01-4.044 3.639 4.337 4.337 0 01-2.359-.673 9.157 9.157 0 00-4.784-1.348c-5.189 0-8.827 3.774-8.827 9.434s3.639 9.5 8.827 9.5a8.854 8.854 0 004.851-1.416 4.122 4.122 0 012.291-.674 3.919 3.919 0 014.111 3.706 3.543 3.543 0 01-1.348 2.763" transform="translate(-373.183 -63.01)"/></g></g></g></svg>